<svg xmlns="http://www.w3.org/2000/svg" width="60.05" height="60.05" viewBox="0 0 60.05 60.05">
  <path id="icn_left" d="M30.587,60.612A30.025,30.025,0,1,1,60.612,30.587,30.02,30.02,0,0,1,30.587,60.612Zm3.5-17.385-9.141-8.765H47.053a2.9,2.9,0,0,0,2.906-2.906V29.619a2.9,2.9,0,0,0-2.906-2.906H24.946l9.141-8.765a2.909,2.909,0,0,0,.048-4.153L32.8,12.476a2.894,2.894,0,0,0-4.1,0L12.633,28.529a2.894,2.894,0,0,0,0,4.1L28.7,48.7a2.894,2.894,0,0,0,4.1,0l1.332-1.32A2.909,2.909,0,0,0,34.086,43.227Z" transform="translate(-0.563 -0.563)" fill="#fff"/>
</svg>
