<svg id="icn_menu" xmlns="http://www.w3.org/2000/svg" width="60.8" height="36.64" viewBox="0 0 60.8 36.64">
  <path id="Path_1" data-name="Path 1" d="M62.767,15.359H7.033A2.584,2.584,0,0,1,4.5,12.742h0a2.584,2.584,0,0,1,2.533-2.617H62.767A2.584,2.584,0,0,1,65.3,12.742h0A2.584,2.584,0,0,1,62.767,15.359Z" transform="translate(-4.5 -10.125)" fill="#fff"/>
  <path id="Path_2" data-name="Path 2" d="M46.506,22.109H6.326c-1,0-1.826-1.178-1.826-2.617h0c0-1.439.822-2.617,1.826-2.617h40.18c1,0,1.826,1.178,1.826,2.617h0C48.333,20.931,47.511,22.109,46.506,22.109Z" transform="translate(12.467 -1.172)" fill="#fff"/>
  <path id="Path_3" data-name="Path 3" d="M62.767,28.859H7.033A2.584,2.584,0,0,1,4.5,26.242h0a2.584,2.584,0,0,1,2.533-2.617H62.767A2.584,2.584,0,0,1,65.3,26.242h0A2.584,2.584,0,0,1,62.767,28.859Z" transform="translate(-4.5 7.781)" fill="#fff"/>
</svg>
